<svg width="22" height="22" viewBox="0 0 22 22" fill="none" xmlns="http://www.w3.org/2000/svg">
<path d="M3.66683 18.3334C3.16266 18.3334 2.73122 18.154 2.3725 17.7953C2.01377 17.4365 1.83411 17.0048 1.8335 16.5V5.50002C1.8335 4.99585 2.01316 4.56441 2.3725 4.20569C2.73183 3.84696 3.16327 3.6673 3.66683 3.66669H18.3335C18.8377 3.66669 19.2694 3.84635 19.6287 4.20569C19.9881 4.56502 20.1674 4.99646 20.1668 5.50002V16.5C20.1668 17.0042 19.9875 17.4359 19.6287 17.7953C19.27 18.1546 18.8383 18.334 18.3335 18.3334H3.66683ZM11.0002 11.9167L18.3335 7.33335V5.50002L11.0002 10.0834L3.66683 5.50002V7.33335L11.0002 11.9167Z" fill="#FBFBFB"/>
</svg>
