<svg width="110" height="81" viewBox="0 0 110 81" fill="none" xmlns="http://www.w3.org/2000/svg">
<path d="M18.9992 50.8C20.8126 50.8 22.5459 50.4933 24.1992 49.88C25.8792 49.24 27.4792 48.2133 28.9992 46.8L30.9992 49.2C29.4792 50.6133 27.6392 51.7333 25.4792 52.56C23.3192 53.3867 21.0259 53.8 18.5992 53.8C16.0926 53.8 13.8259 53.48 11.7992 52.84C9.79922 52.2 8.07922 51.2533 6.63922 50C5.22589 48.7467 4.13255 47.2 3.35922 45.36C2.58589 43.52 2.19922 41.4 2.19922 39C2.19922 36.6 2.57255 34.48 3.31922 32.64C4.09255 30.8 5.17255 29.2533 6.55922 28C7.97255 26.7467 9.66589 25.8 11.6392 25.16C13.6126 24.52 15.7992 24.2 18.1992 24.2C20.6259 24.2 22.9192 24.6133 25.0792 25.44C27.2392 26.2667 29.0792 27.3867 30.5992 28.8L28.5992 31.2C27.0792 29.7867 25.4792 28.7733 23.7992 28.16C22.1459 27.52 20.4126 27.2 18.5992 27.2C17.1592 27.2 15.8126 27.44 14.5592 27.92C13.3059 28.3733 12.2259 29.08 11.3192 30.04C10.4126 31 9.69255 32.2267 9.15922 33.72C8.65255 35.1867 8.39922 36.9467 8.39922 39C8.39922 41.0533 8.65255 42.8267 9.15922 44.32C9.69255 45.7867 10.4259 47 11.3592 47.96C12.3192 48.92 13.4392 49.64 14.7192 50.12C16.0259 50.5733 17.4526 50.8 18.9992 50.8Z" fill="#026773"/>
<path d="M38.7157 41.6325C35.0948 37.83 35.0948 31.6543 38.7157 27.8518C42.3366 24.0494 48.1991 24.0494 51.8201 27.8518L54 30.1486L56.1799 27.8518C59.8009 24.0494 65.6634 24.0494 69.2843 27.8518C72.9052 31.6543 72.9052 37.83 69.2843 41.6325L56.7711 54.8006C56.0075 55.6044 55.0099 56 54 56C52.9901 56 51.9925 55.6044 51.2289 54.8006L38.7157 41.6325Z" fill="#026773"/>
<path d="M107.003 25V53H101.203V40.8H84.8031V53H79.0031V25H84.8031V37.8H101.203V25H107.003Z" fill="#3CA6A6"/>
<path d="M79.1881 62.6979C80.5527 64.5521 80.1569 67.1562 78.3027 68.5208L65.1151 78.2396C62.6776 80.0313 59.74 81 56.7087 81H23.3334C21.4896 81 20 79.5104 20 77.6667V71C20 69.1562 21.4896 67.6667 23.3334 67.6667H27.1667L31.8439 63.9167C34.2085 62.0208 37.146 61 40.1773 61H56.6671C58.5108 61 60.0004 62.4896 60.0004 64.3333C60.0004 66.1771 58.5108 67.6667 56.6671 67.6667H48.3336C47.417 67.6667 46.667 68.4167 46.667 69.3333C46.667 70.25 47.417 71 48.3336 71H60.8963L73.3652 61.8125C75.2194 60.4479 77.8235 60.8438 79.1881 62.6979Z" fill="#FFDBAC"/>
<path d="M32.3822 18.3021C31.0176 16.4479 31.4134 13.8438 33.2676 12.4792L46.4552 2.76041C48.8928 0.968748 51.8303 -6.35751e-07 54.8616 -6.35751e-07L88.2369 -6.35751e-07C90.0807 -6.35751e-07 91.5703 1.48958 91.5703 3.33333V10C91.5703 11.8438 90.0807 13.3333 88.2369 13.3333H84.4036L79.7264 17.0833C77.3618 18.9792 74.4243 20 71.393 20H54.9032C53.0595 20 51.5699 18.5104 51.5699 16.6667C51.5699 14.8229 53.0595 13.3333 54.9032 13.3333H63.2367C64.1533 13.3333 64.9034 12.5833 64.9034 11.6667C64.9034 10.75 64.1533 10 63.2367 10L50.674 10L38.2051 19.1875C36.351 20.5521 33.7468 20.1562 32.3822 18.3021Z" fill="#FFDBAC"/>
</svg>
