<svg width="44" height="45" viewBox="0 0 44 45" fill="none" xmlns="http://www.w3.org/2000/svg">
<g clip-path="url(#clip0_247_1152)">
<path fill-rule="evenodd" clip-rule="evenodd" d="M36.5557 0.499961C37.6282 0.499961 38.4999 1.37171 38.4999 2.44421V5.99996H42.0557C42.4403 5.99988 42.8163 6.11386 43.1361 6.32749C43.4559 6.54113 43.7052 6.84481 43.8523 7.20012C43.9995 7.55544 44.038 7.94643 43.963 8.32363C43.8879 8.70083 43.7027 9.0473 43.4307 9.31921L39.4157 13.3342C38.8295 13.9191 38.0356 14.2484 37.2074 14.25H33.1649L23.4574 23.9575C23.0665 24.3218 22.5493 24.5201 22.015 24.5107C21.4807 24.5013 20.9709 24.2848 20.593 23.9069C20.2151 23.529 19.9986 23.0192 19.9892 22.4849C19.9798 21.9506 20.1781 21.4334 20.5424 21.0425L30.2499 11.335V7.29246C30.2499 6.46471 30.5799 5.66996 31.1657 5.08146L35.1807 1.06646C35.3606 0.885074 35.5749 0.741323 35.811 0.64359C36.047 0.545857 36.3002 0.496097 36.5557 0.497211M6.87495 22.5C6.87465 20.2574 7.37303 18.0429 8.33398 16.0167C9.29494 13.9905 10.6944 12.2034 12.4311 10.7846C14.1678 9.36589 16.1983 8.35109 18.3754 7.8137C20.5526 7.27631 22.8221 7.22977 25.0194 7.67746C25.5527 7.77922 26.1046 7.6666 26.5554 7.36404C27.0062 7.06148 27.3195 6.59338 27.4274 6.06129C27.5353 5.5292 27.429 4.97604 27.1316 4.52181C26.8342 4.06758 26.3698 3.74892 25.8389 3.63496C21.7845 2.81066 17.5724 3.31456 13.8269 5.07198C10.0813 6.82941 7.00163 9.74684 5.04425 13.3919C3.08687 17.0369 2.35596 21.2157 2.95983 25.3087C3.56371 29.4018 5.47024 33.1913 8.39686 36.1158C11.3235 39.0403 15.1145 40.9441 19.208 41.5449C23.3015 42.1458 27.4796 41.4118 31.1232 39.4518C34.7669 37.4918 37.682 34.4099 39.4367 30.6631C41.1914 26.9163 41.6922 22.7038 40.8649 18.65C40.7559 18.1139 40.4384 17.6431 39.9822 17.3411C39.5261 17.0392 38.9686 16.9308 38.4326 17.0398C37.8965 17.1489 37.4257 17.4664 37.1237 17.9226C36.8218 18.3787 36.7134 18.9361 36.8224 19.4722C37.0223 20.4494 37.1231 21.4586 37.1249 22.5C37.1249 26.5114 35.5314 30.3585 32.6949 33.195C29.8584 36.0314 26.0113 37.625 21.9999 37.625C17.9885 37.625 14.1414 36.0314 11.305 33.195C8.46847 30.3585 6.87495 26.5114 6.87495 22.5ZM21.6259 15.636C22.1722 15.6068 22.6845 15.3618 23.0502 14.9549C23.4158 14.548 23.6049 14.0125 23.5757 13.4662C23.5465 12.9199 23.3015 12.4076 22.8946 12.042C22.4877 11.6763 21.9522 11.4873 21.4059 11.5165C19.2937 11.6303 17.2591 12.3507 15.5459 13.5914C13.8327 14.8321 12.5136 16.5404 11.7466 18.5117C10.9795 20.483 10.7971 22.6337 11.2212 24.706C11.6454 26.7783 12.658 28.6844 14.1378 30.1959C15.6176 31.7074 17.5018 32.7601 19.5647 33.228C21.6275 33.6959 23.7816 33.5591 25.7687 32.834C27.7558 32.1089 29.4917 30.8262 30.7684 29.1397C32.0451 27.4532 32.8084 25.4343 32.9669 23.325C33.0074 22.7794 32.8295 22.2401 32.4724 21.8257C32.1152 21.4114 31.6081 21.1558 31.0626 21.1153C30.517 21.0749 29.9777 21.2528 29.5634 21.6099C29.149 21.967 28.8934 22.4742 28.8529 23.0197C28.7526 24.3374 28.2747 25.5982 27.4764 26.6512C26.6781 27.7043 25.5932 28.5049 24.3516 28.9574C23.11 29.4098 21.7643 29.4948 20.4757 29.2022C19.187 28.9097 18.01 28.2519 17.0855 27.3077C16.161 26.3635 15.5282 25.1729 15.2628 23.8784C14.9975 22.5838 15.1108 21.2403 15.5893 20.0085C16.0678 18.7767 16.8911 17.7089 17.9608 16.933C19.0304 16.157 20.301 15.7057 21.6204 15.6332" fill="#3CA6A6"/>
</g>
<defs>
<clipPath id="clip0_247_1152">
<rect width="44" height="44" fill="white" transform="translate(0 0.5)"/>
</clipPath>
</defs>
</svg>
