<svg width="44" height="45" viewBox="0 0 44 45" fill="none" xmlns="http://www.w3.org/2000/svg">
<path d="M21.9999 17C20.5412 17 19.1423 17.5795 18.1108 18.6109C17.0794 19.6424 16.4999 21.0413 16.4999 22.5C16.4999 23.9587 17.0794 25.3576 18.1108 26.3891C19.1423 27.4205 20.5412 28 21.9999 28C23.4586 28 24.8576 27.4205 25.889 26.3891C26.9205 25.3576 27.4999 23.9587 27.4999 22.5C27.4999 21.0413 26.9205 19.6424 25.889 18.6109C24.8576 17.5795 23.4586 17 21.9999 17ZM21.9999 31.6667C19.5688 31.6667 17.2372 30.7009 15.5181 28.9818C13.799 27.2627 12.8333 24.9312 12.8333 22.5C12.8333 20.0688 13.799 17.7373 15.5181 16.0182C17.2372 14.2991 19.5688 13.3333 21.9999 13.3333C24.4311 13.3333 26.7626 14.2991 28.4817 16.0182C30.2008 17.7373 31.1666 20.0688 31.1666 22.5C31.1666 24.9312 30.2008 27.2627 28.4817 28.9818C26.7626 30.7009 24.4311 31.6667 21.9999 31.6667ZM21.9999 8.75C12.8333 8.75 5.00492 14.4517 1.83325 22.5C5.00492 30.5483 12.8333 36.25 21.9999 36.25C31.1666 36.25 38.9949 30.5483 42.1666 22.5C38.9949 14.4517 31.1666 8.75 21.9999 8.75Z" fill="#3CA6A6"/>
</svg>
