<svg width="28" height="28" viewBox="0 0 28 28" fill="none" xmlns="http://www.w3.org/2000/svg">
<path d="M9.10004 2.33333H18.9C22.6334 2.33333 25.6667 5.36666 25.6667 9.1V18.9C25.6667 20.6946 24.9538 22.4158 23.6848 23.6848C22.4158 24.9537 20.6947 25.6667 18.9 25.6667H9.10004C5.36671 25.6667 2.33337 22.6333 2.33337 18.9V9.1C2.33337 7.30536 3.04629 5.58424 4.31528 4.31524C5.58428 3.04624 7.30541 2.33333 9.10004 2.33333ZM8.86671 4.66666C7.7528 4.66666 6.68451 5.10916 5.89686 5.89681C5.10921 6.68447 4.66671 7.75275 4.66671 8.86666V19.1333C4.66671 21.455 6.54504 23.3333 8.86671 23.3333H19.1334C20.2473 23.3333 21.3156 22.8908 22.1032 22.1032C22.8909 21.3155 23.3334 20.2472 23.3334 19.1333V8.86666C23.3334 6.54499 21.455 4.66666 19.1334 4.66666H8.86671ZM20.125 6.41666C20.5118 6.41666 20.8827 6.57031 21.1562 6.8438C21.4297 7.11729 21.5834 7.48822 21.5834 7.87499C21.5834 8.26177 21.4297 8.6327 21.1562 8.90619C20.8827 9.17968 20.5118 9.33333 20.125 9.33333C19.7383 9.33333 19.3673 9.17968 19.0938 8.90619C18.8204 8.6327 18.6667 8.26177 18.6667 7.87499C18.6667 7.48822 18.8204 7.11729 19.0938 6.8438C19.3673 6.57031 19.7383 6.41666 20.125 6.41666ZM14 8.16666C15.5471 8.16666 17.0309 8.78124 18.1248 9.87521C19.2188 10.9692 19.8334 12.4529 19.8334 14C19.8334 15.5471 19.2188 17.0308 18.1248 18.1248C17.0309 19.2187 15.5471 19.8333 14 19.8333C12.4529 19.8333 10.9692 19.2187 9.87525 18.1248C8.78129 17.0308 8.16671 15.5471 8.16671 14C8.16671 12.4529 8.78129 10.9692 9.87525 9.87521C10.9692 8.78124 12.4529 8.16666 14 8.16666ZM14 10.5C13.0718 10.5 12.1815 10.8687 11.5252 11.5251C10.8688 12.1815 10.5 13.0717 10.5 14C10.5 14.9283 10.8688 15.8185 11.5252 16.4749C12.1815 17.1312 13.0718 17.5 14 17.5C14.9283 17.5 15.8185 17.1312 16.4749 16.4749C17.1313 15.8185 17.5 14.9283 17.5 14C17.5 13.0717 17.1313 12.1815 16.4749 11.5251C15.8185 10.8687 14.9283 10.5 14 10.5Z" fill="#FBFBFB"/>
</svg>
