<svg width="28" height="28" viewBox="0 0 28 28" fill="none" xmlns="http://www.w3.org/2000/svg">
<path d="M14.0001 12.8333L9.33343 24.5M11.6364 19.334C12.9057 19.8968 14.3342 19.9885 15.665 19.5924C16.9958 19.1964 18.1417 18.3386 18.8967 17.1733C19.6517 16.0081 19.9662 14.6117 19.7839 13.2352C19.6015 11.8588 18.9341 10.5925 17.9017 9.66405C16.8693 8.73559 15.5396 8.20585 14.1515 8.17003C12.7635 8.13422 11.4082 8.59469 10.3293 9.46867C9.25039 10.3426 8.5186 11.5728 8.26548 12.938C8.01237 14.3033 8.25452 15.714 8.94843 16.9167" stroke="#FBFBFB" stroke-width="1.75" stroke-linecap="round" stroke-linejoin="round"/>
<path d="M14 25.6667C20.4434 25.6667 25.6667 20.4433 25.6667 14C25.6667 7.55667 20.4434 2.33333 14 2.33333C7.55672 2.33333 2.33337 7.55667 2.33337 14C2.33337 20.4433 7.55672 25.6667 14 25.6667Z" stroke="#FBFBFB" stroke-width="1.75" stroke-linecap="round" stroke-linejoin="round"/>
</svg>
